<?xml version="1.0" standalone="no"?><!DOCTYPE svg PUBLIC "-//W3C//DTD SVG 1.1//EN" "http://www.w3.org/Graphics/SVG/1.1/DTD/svg11.dtd"><svg t="1667267014968" class="icon" viewBox="0 0 1024 1024" version="1.1" xmlns="http://www.w3.org/2000/svg" p-id="6037" xmlns:xlink="http://www.w3.org/1999/xlink" width="200" height="200"><path d="M632 992H172.8c-70.4 0-128-57.6-128-128V352c0-176 144-320 320-320h267.2c70.4 0 128 57.6 128 128v704c0 70.4-57.6 128-128 128z" fill="#E1E1DF" p-id="6038"></path><path d="M852.8 992H326.4c-70.4 0-128-57.6-128-128V336c0-70.4 57.6-128 128-128h526.4c70.4 0 128 57.6 128 128v528c0 70.4-57.6 128-128 128z" fill="#4E8DF6" p-id="6039"></path><path d="M320 417.6a110.4 110.4 0 1 0 220.8 0 110.4 110.4 0 1 0-220.8 0Z" fill="#FFFFFF" p-id="6040"></path><path d="M875.2 606.4c-48-48-126.4-48-174.4 0L321.6 985.6l-6.4 6.4h536c70.4 0 128-57.6 128-128v-152l-104-105.6z" fill="#2166CC" p-id="6041"></path><path d="M731.2 992l-272-273.6c-48-48-126.4-48-174.4 0l-84.8 86.4V864c0 70.4 57.6 128 128 128h403.2z" fill="#629FF9" p-id="6042"></path></svg>